<svg xmlns="http://www.w3.org/2000/svg" viewBox="0 0 1600 900" fill="none">
  <defs>
    <linearGradient id="sky" x1="0" y1="0" x2="0" y2="1">
      <stop offset="0%" stop-color="#f8fafc" />
      <stop offset="100%" stop-color="#e2e8f0" />
    </linearGradient>
    <linearGradient id="ground" x1="0" y1="0" x2="1" y2="0">
      <stop offset="0%" stop-color="#dbeafe" />
      <stop offset="100%" stop-color="#ede9fe" />
    </linearGradient>
  </defs>
  <rect width="1600" height="900" fill="url(#sky)" />
  <rect y="620" width="1600" height="280" fill="url(#ground)" />
  <g opacity="0.95">
    <rect x="130" y="330" width="280" height="290" rx="6" fill="#ffffff" />
    <rect x="165" y="365" width="60" height="90" fill="#fecaca" />
    <rect x="245" y="365" width="60" height="90" fill="#fee2e2" />
    <rect x="325" y="365" width="60" height="90" fill="#fecaca" />
    <rect x="245" y="480" width="60" height="140" fill="#b91c1c" />
  </g>
  <g opacity="0.95">
    <rect x="510" y="260" width="350" height="360" rx="8" fill="#ffffff" />
    <rect x="555" y="305" width="70" height="95" fill="#fee2e2" />
    <rect x="645" y="305" width="70" height="95" fill="#fecaca" />
    <rect x="735" y="305" width="70" height="95" fill="#fee2e2" />
    <rect x="555" y="420" width="70" height="95" fill="#fecaca" />
    <rect x="645" y="420" width="70" height="95" fill="#fee2e2" />
    <rect x="735" y="420" width="70" height="95" fill="#fecaca" />
    <rect x="657" y="520" width="56" height="100" fill="#991b1b" />
  </g>
  <g opacity="0.95">
    <rect x="940" y="300" width="300" height="320" rx="8" fill="#ffffff" />
    <rect x="980" y="345" width="62" height="90" fill="#fee2e2" />
    <rect x="1060" y="345" width="62" height="90" fill="#fecaca" />
    <rect x="1140" y="345" width="62" height="90" fill="#fee2e2" />
    <rect x="1062" y="470" width="58" height="150" fill="#b91c1c" />
  </g>
  <g opacity="0.95">
    <rect x="1280" y="380" width="190" height="240" rx="8" fill="#ffffff" />
    <rect x="1310" y="415" width="45" height="70" fill="#fee2e2" />
    <rect x="1365" y="415" width="45" height="70" fill="#fecaca" />
    <rect x="1338" y="510" width="40" height="110" fill="#991b1b" />
  </g>
  <path d="M120 620h1360" stroke="#cbd5e1" stroke-width="4" />
</svg>
